<svg xmlns="http://www.w3.org/2000/svg" viewBox="0 0 240 240">
  <path fill="none" d="M0 0h240v240H0Z"/>
  <g fill="none">
    <path d="M85 127.34V140h70v-12.66c0-9.94 11.44-17.25 20.49-20.45v-9.21A42.68 42.68 0 0 0 132.81 55h-25.14A42.68 42.68 0 0 0 65 97.68v9.2c8.9 3.2 20 10.52 20 20.46Z"/>
    <path d="M85 140v-12.66c0-9.94-11.1-17.25-20-20.45a28.61 28.61 0 0 0-9.42-1.79C44.73 105.1 40 111.43 40 125v35c0 13.57 14.15 25 25 25l110 .44c10.85 0 24.64-11.44 24.64-25v-33.1c0-13.57-3.8-22.24-14.64-22.24l-9.51 1.79c-9.05 3.2-20.49 10.5-20.49 20.45V140Z"/>
    <path stroke="#fff" stroke-width="15" d="M185 105.1c10.85 0 14.64 8.67 14.64 22.24v33.1c0 13.56-13.8 25-24.64 25L65 185c-10.85 0-25-11.43-25-25v-35c0-13.57 4.73-19.9 15.58-19.9a28.42 28.42 0 0 1 9.42 1.79m120-1.79a29.11 29.11 0 0 0-9.51 1.79m9.51-1.79-9.51 1.79m-110.49 0c8.9 3.2 20 10.5 20 20.45V140h70v-12.66c0-9.94 11.44-17.25 20.49-20.45m-110.49 0v-9.21A42.68 42.68 0 0 1 107.68 55h25.13a42.68 42.68 0 0 1 42.68 42.68v9.2"/>
  </g>
</svg>