<svg xmlns="http://www.w3.org/2000/svg" viewBox="0 0 240 240">
  <path fill="none" d="M0 0h240v240H0Z"/>
  <g fill="none">
    <path d="M90 37.5h60a15 15 0 0 1 15 15v33.17a15 15 0 0 1 7.5-2h14.94a15 15 0 0 1 15 15v49.23a15 15 0 0 1-15 15H172.5a15 15 0 0 1-7.5-2v13.4a15 15 0 0 1-15 15H90a15 15 0 0 1-15-15v-13.4a15 15 0 0 1-7.5 2h-15a15 15 0 0 1-15-15V98.66a15 15 0 0 1 15-15h15a15 15 0 0 1 7.5 2V52.5a15 15 0 0 1 15-15Z"/>
    <path stroke="#fff" stroke-width="15" d="M105 162.9v26.4m30-26.4v26.4m-30 0H90a15 15 0 0 1-15-15v-13.4m30 28.4h30m0 0h15a15 15 0 0 0 15-15v-13.4m0 0a15 15 0 0 0 7.5 2h14.94a15 15 0 0 0 15-15V98.67a15 15 0 0 0-15-15H172.5a15 15 0 0 0-7.5 2m0 75.22a15 15 0 0 1-7.5-13v-33.6M75 160.89a15 15 0 0 0 7.5-13v-33.6m-7.5 46.6a14.9 14.9 0 0 1-7.5 2h-15a15 15 0 0 1-15-15V98.67a15 15 0 0 1 15-15h15a15 15 0 0 1 7.5 2m0 0a15 15 0 0 1 7.5 13v15.61M75 85.68V52.5a15 15 0 0 1 15-15h60a15 15 0 0 1 15 15v33.17m0 0a15 15 0 0 0-7.5 13v15.61m-75 0h75"/>
  </g>
</svg>