<svg xmlns="http://www.w3.org/2000/svg" viewBox="0 0 480 240">
  <path fill="none" d="M0 0h480v240H0Z"/>
  <g fill="none">
    <path d="M63.5 140.5a32 32 0 0 1 10.8-41.2 30 30 0 0 1 34 2.2 25.81 25.81 0 0 1 6.7 8l12.2 23h225.6l12.2-23a26.25 26.25 0 0 1 9.9-10.2 30 30 0 0 1 30.9 0 32 32 0 0 1 10.8 41.2l-17.2 32.7a27.06 27.06 0 0 1-11.2 11.5 29.75 29.75 0 0 1-16.5 5H108.4a29.75 29.75 0 0 1-16.3-4.8 27.18 27.18 0 0 1-11.5-11.7Z"/>
    <path d="m115 109.6 12.2 22.9h225.6l12.2-23a26.25 26.25 0 0 1 9.9-10.2l-13.1-20.8A40 40 0 0 0 327.9 60H154.3a40 40 0 0 0-35.5 21.5l-10.4 20.1a25.49 25.49 0 0 1 6.6 8Z"/>
    <path stroke="#fff" stroke-width="15" d="M108.4 101.5a25.49 25.49 0 0 1 6.6 8l12.2 23h225.6l12.2-23a26.25 26.25 0 0 1 9.9-10.2m-266.5 2.2a30 30 0 0 0-34.1-2.2 32 32 0 0 0-10.8 41.2l17.1 32.7a27.09 27.09 0 0 0 11.5 11.7 30.26 30.26 0 0 0 16.3 4.8h263.3a29.21 29.21 0 0 0 16.5-5 26.51 26.51 0 0 0 11.2-11.5l17.2-32.7a32 32 0 0 0-10.8-41.2 30 30 0 0 0-31 0m-266.4 2.2 10.4-20a40 40 0 0 1 35.5-21.6h173.6a40 40 0 0 1 33.9 18.6l13 20.8"/>
  </g>
</svg>