<svg xmlns="http://www.w3.org/2000/svg" viewBox="0 0 240 240">
  <path fill="none" d="M0 0h240v240H0Z"/>
  <g fill="none">
    <path d="M157.5 112.5a15 15 0 0 1 15-15h15a15 15 0 0 1 15 15v60a15 15 0 0 1-15 15h-15a15 15 0 0 1-15-15Zm-120 0a15 15 0 0 1 15-15h15a15 15 0 0 1 15 15v60a15 15 0 0 1-15 15h-15a15 15 0 0 1-15-15Z"/>
    <path d="M150 45H90a15 15 0 0 0-15 15v39.5a14.92 14.92 0 0 1 7.5 13V135h75v-22.5a15 15 0 0 1 7.5-13V60a15 15 0 0 0-15-15Zm22.5 142.5a15 15 0 0 1-15-15V135h-75v37.5a15 15 0 0 1-15 15Z"/>
    <path stroke="#fff" stroke-width="15" d="M172.5 187.5h15a15 15 0 0 0 15-15v-60a15 15 0 0 0-15-15h-15a14.76 14.76 0 0 0-7.5 2m7.5 88a15 15 0 0 1-15-15V135m15 52.5h-105m0 0h-15a15 15 0 0 1-15-15v-60a15 15 0 0 1 15-15h15a14.76 14.76 0 0 1 7.5 2m-7.5 88a15 15 0 0 0 15-15V135M75 99.5a14.92 14.92 0 0 1 7.5 13V135M75 99.5V60a15 15 0 0 1 15-15h60a15 15 0 0 1 15 15v39.5m0 0a15 15 0 0 0-7.5 13V135m-75 0h75"/>
  </g>
</svg>